<svg width="78" height="76" viewBox="0 0 78 76" fill="none" xmlns="http://www.w3.org/2000/svg">
<path d="M35.75 34.8333C35.75 33.0844 37.2051 31.6666 39 31.6666H52C53.7949 31.6666 55.25 33.0844 55.25 34.8333C55.25 36.5822 53.7949 38 52 38H39C37.2051 38 35.75 36.5822 35.75 34.8333Z" fill="white"/>
<path d="M39 41.1666C37.2051 41.1666 35.75 42.5844 35.75 44.3333C35.75 46.0822 37.2051 47.5 39 47.5H52C53.7949 47.5 55.25 46.0822 55.25 44.3333C55.25 42.5844 53.7949 41.1666 52 41.1666H39Z" fill="white"/>
<path fill-rule="evenodd" clip-rule="evenodd" d="M9.75 12.6666C9.75 9.16884 12.6601 6.33331 16.25 6.33331H52C55.5899 6.33331 58.5 9.16884 58.5 12.6666V19H61.75C65.3398 19 68.25 21.8355 68.25 25.3333V63.3333C68.25 66.8311 65.3398 69.6667 61.75 69.6667H29.25C25.6601 69.6667 22.75 66.8311 22.75 63.3333V60.1667H16.25C12.6601 60.1667 9.75 57.3311 9.75 53.8333V12.6666ZM52.923 63.3333H61.75V54.0159L52.923 63.3333ZM61.75 44.6785L44.077 63.3333H29.25V25.3333H61.75V44.6785ZM52 12.6666V19H29.25C25.6601 19 22.75 21.8355 22.75 25.3333V53.8333H16.25V12.6666H52Z" fill="white"/>
</svg>
